<?xml version="1.0" encoding="utf-8"?>
<!-- Generator: Adobe Illustrator 24.0.1, SVG Export Plug-In . SVG Version: 6.00 Build 0)  -->
<svg version="1.1" id="Layer_1" xmlns="http://www.w3.org/2000/svg" xmlns:xlink="http://www.w3.org/1999/xlink" x="0px" y="0px"
	 viewBox="0 0 368.4 99.8" style="enable-background:new 0 0 368.4 99.8;" xml:space="preserve">
<style type="text/css">
	.st0{fill:#8C52FF;}
	.st1{clip-path:url(#SVGID_2_);}
	.st2{clip-path:url(#SVGID_4_);}
	.st3{clip-path:url(#SVGID_6_);}
	.st4{fill:#FFFFFF;}
	.st5{clip-path:url(#SVGID_8_);}
	.st6{clip-path:url(#SVGID_10_);}
	.st7{clip-path:url(#SVGID_12_);}
	.st8{clip-path:url(#SVGID_14_);}
	.st9{clip-path:url(#SVGID_16_);}
	.st10{clip-path:url(#SVGID_18_);}
	.st11{clip-path:url(#SVGID_20_);}
	.st12{clip-path:url(#SVGID_22_);}
	.st13{clip-path:url(#SVGID_24_);}
	.st14{clip-path:url(#SVGID_26_);}
	.st15{clip-path:url(#SVGID_28_);}
	.st16{clip-path:url(#SVGID_30_);}
	.st17{clip-path:url(#SVGID_32_);}
	.st18{clip-path:url(#SVGID_34_);}
</style>
<g>
	<g transform="translate(48.67755, 212.999986)">
		<g>
			<path d="M-35.8-113.2c-5.4,0-9.7-0.9-12.9-2.7l4.7-13.1c1.7,1,3.6,1.6,5.8,1.6c1.7,0,3-0.6,4-1.8c1-1.2,1.5-2.9,1.5-5.1v-51.3
				h18.5v51.4c0,6.5-1.9,11.6-5.7,15.4C-23.8-115.1-29.1-113.2-35.8-113.2z M-23.6-191.6c-3.4,0-6.1-0.9-8.2-2.8
				c-2.1-1.9-3.1-4.2-3.1-7c0-2.8,1-5.1,3.1-7c2.1-1.9,4.8-2.8,8.2-2.8s6.1,0.9,8.2,2.7c2.1,1.8,3.1,4.1,3.1,6.9
				c0,2.9-1,5.3-3.1,7.3C-17.5-192.6-20.2-191.6-23.6-191.6z"/>
		</g>
	</g>
</g>
<g>
	<g transform="translate(71.682349, 212.999986)">
		<g>
			<path d="M29.6-185.8v52.8H11.9v-5.6c-1.9,2.1-4.3,3.8-7,4.9c-2.7,1.1-5.6,1.6-8.6,1.6c-6.8,0-12.3-2-16.3-6
				c-4.1-4-6.1-10.1-6.1-18.1v-29.5h18.5v26.5c0,4,0.7,6.8,2.2,8.7c1.5,1.8,3.7,2.7,6.5,2.7c2.9,0,5.3-1,7.2-3.1
				c1.8-2.1,2.8-5.2,2.8-9.4v-25.4H29.6z"/>
		</g>
	</g>
</g>
<g>
	<g transform="translate(121.854743, 212.999986)">
		<g>
			<path d="M10-132.1c-4.4,0-8.8-0.5-13.1-1.5c-4.3-1-7.7-2.3-10.3-4l5.6-12.6c2.4,1.5,5.2,2.7,8.5,3.5c3.3,0.9,6.6,1.3,9.9,1.3
				c3,0,5.1-0.3,6.4-0.9c1.3-0.6,1.9-1.5,1.9-2.7c0-1.2-0.8-2-2.3-2.5c-1.5-0.5-3.9-0.9-7.3-1.4c-4.2-0.5-7.8-1.2-10.8-2
				c-2.9-0.8-5.5-2.4-7.6-4.7c-2.1-2.3-3.2-5.5-3.2-9.5c0-3.4,1-6.4,3-9c2-2.6,4.9-4.7,8.8-6.2c3.9-1.5,8.5-2.3,13.9-2.3
				c3.8,0,7.6,0.4,11.4,1.2c3.8,0.8,6.9,1.9,9.5,3.3l-5.6,12.6c-4.7-2.6-9.7-3.9-15.2-3.9c-2.9,0-5.1,0.3-6.4,1
				c-1.4,0.7-2,1.6-2,2.7c0,1.2,0.7,2.1,2.2,2.6c1.5,0.5,4,1,7.4,1.5c4.3,0.6,7.9,1.4,10.8,2.2c2.9,0.8,5.3,2.4,7.5,4.6
				c2.1,2.2,3.2,5.4,3.2,9.4c0,3.3-1,6.3-3,8.9c-2,2.6-5,4.7-8.9,6.2C20.2-132.9,15.5-132.1,10-132.1z"/>
		</g>
	</g>
</g>
<g>
	<g transform="translate(161.437622, 212.999986)">
		<g>
			<path d="M40.4-135.1c-1.6,1-3.5,1.7-5.7,2.2c-2.2,0.5-4.6,0.8-7.2,0.8c-6.9,0-12.2-1.7-15.9-5.1c-3.7-3.4-5.5-8.4-5.5-15.1V-170
				h-7.7v-13.8h7.7v-13.7h18.5v13.7h12.1v13.8H24.6v17.5c0,1.9,0.5,3.4,1.5,4.4c1,1.1,2.4,1.6,4,1.6c2.2,0,4-0.5,5.7-1.6L40.4-135.1
				z"/>
		</g>
	</g>
</g>
<g>
	<g transform="translate(194.332257, 212.999986)">
		<g>
			<path class="st0" d="M68.9-159.3c0,0.1-0.1,1.7-0.3,4.6H30.2c0.8,2.7,2.3,4.8,4.5,6.3c2.3,1.5,5.1,2.2,8.4,2.2
				c2.5,0,4.7-0.4,6.6-1.1c1.8-0.7,3.7-1.9,5.6-3.5l9.7,10.1c-5.1,5.7-12.6,8.6-22.5,8.6c-6.2,0-11.6-1.2-16.3-3.5
				c-4.7-2.3-8.3-5.6-10.9-9.7c-2.6-4.2-3.8-8.9-3.8-14.1c0-5.2,1.3-9.9,3.8-14s6-7.4,10.4-9.7c4.4-2.3,9.4-3.5,14.9-3.5
				c5.3,0,10,1.1,14.3,3.3c4.3,2.2,7.7,5.3,10.2,9.4C67.7-169.8,68.9-164.9,68.9-159.3z M40.8-173.5c-2.9,0-5.3,0.8-7.2,2.4
				c-1.9,1.6-3.1,3.8-3.6,6.6h21.6c-0.5-2.8-1.8-5-3.7-6.6C46-172.7,43.6-173.5,40.8-173.5z"/>
		</g>
	</g>
</g>
<g>
	<g transform="translate(240.853093, 212.999986)">
		<g>
			<path class="st0" d="M53-186.6c8.8,0,15.4,2,20.1,6c4.6,4,6.9,10.1,6.9,18.3v29.3H62.7v-6.8c-2.7,5.1-7.8,7.7-15.6,7.7
				c-4.1,0-7.6-0.7-10.6-2.1c-3-1.4-5.2-3.4-6.8-5.8c-1.5-2.4-2.3-5.2-2.3-8.3c0-5,1.9-8.9,5.8-11.6c3.8-2.8,9.7-4.1,17.7-4.1h10.5
				c-0.3-5.6-4.1-8.4-11.2-8.4c-2.5,0-5.1,0.4-7.7,1.2c-2.6,0.8-4.8,1.9-6.6,3.4l-6.2-12.6c2.9-1.9,6.5-3.4,10.6-4.5
				C44.5-186.1,48.7-186.6,53-186.6z M52.3-143.8c2.1,0,4-0.5,5.6-1.5c1.6-1,2.8-2.6,3.5-4.6v-4.6h-8c-5.4,0-8.1,1.8-8.1,5.4
				c0,1.6,0.6,2.9,1.9,3.9C48.4-144.3,50.1-143.8,52.3-143.8z"/>
		</g>
	</g>
</g>
<g>
	<g transform="translate(286.351492, 212.999986)">
		<g>
			<path class="st0" d="M82-135.1c-1.6,1-3.5,1.7-5.7,2.2c-2.2,0.5-4.6,0.8-7.2,0.8c-6.9,0-12.2-1.7-15.9-5.1
				c-3.7-3.4-5.5-8.4-5.5-15.1V-170h-7.7v-13.8h7.7v-13.7h18.5v13.7h12.1v13.8H66.3v17.5c0,1.9,0.5,3.4,1.5,4.4c1,1.1,2.4,1.6,4,1.6
				c2.2,0,4-0.5,5.7-1.6L82-135.1z"/>
		</g>
	</g>
</g>
<g>
	<defs>
		<rect id="SVGID_1_" x="216.2" y="6.7" width="28" height="28"/>
	</defs>
	<clipPath id="SVGID_2_">
		<use xlink:href="#SVGID_1_"  style="overflow:visible;"/>
	</clipPath>
	<g class="st1">
		<g>
			<defs>
				
					<rect id="SVGID_3_" x="215.3" y="8.5" transform="matrix(0.693 -0.721 0.721 0.693 55.8285 172.359)" width="29.9" height="24.4"/>
			</defs>
			<clipPath id="SVGID_4_">
				<use xlink:href="#SVGID_3_"  style="overflow:visible;"/>
			</clipPath>
			<g class="st2">
				<g>
					<defs>
						<path id="SVGID_5_" d="M240.6,9.8c-4.8-4.7-13.4-3.6-19.1,2.4c-5.7,6-6.4,14.6-1.6,19.2c4.8,4.7,13.4,3.6,19.1-2.4
							C244.8,23.1,245.5,14.5,240.6,9.8z"/>
					</defs>
					<clipPath id="SVGID_6_">
						<use xlink:href="#SVGID_5_"  style="overflow:visible;"/>
					</clipPath>
					<g class="st3">
						<path class="st4" d="M231.9,1.4l17.6,16.9l-20.7,21.6L211.1,23L231.9,1.4z"/>
					</g>
				</g>
			</g>
		</g>
	</g>
</g>
<g>
	<defs>
		<rect id="SVGID_7_" x="249.6" y="25.3" width="24" height="25.3"/>
	</defs>
	<clipPath id="SVGID_8_">
		<use xlink:href="#SVGID_7_"  style="overflow:visible;"/>
	</clipPath>
	<g class="st5">
		<g>
			<defs>
				
					<rect id="SVGID_9_" x="249.4" y="28" transform="matrix(0.3701 -0.929 0.929 0.3701 128.8884 267.3581)" width="24.4" height="21.3"/>
			</defs>
			<clipPath id="SVGID_10_">
				<use xlink:href="#SVGID_9_"  style="overflow:visible;"/>
			</clipPath>
			<g class="st6">
				<g>
					<defs>
						<path id="SVGID_11_" d="M271.5,42.6c2.5-6.3,0.1-13.1-5.4-15.3c-5.5-2.2-11.9,1.1-14.4,7.4c-2.5,6.2-0.1,13.1,5.4,15.3
							C262.5,52.1,269,48.8,271.5,42.6z"/>
					</defs>
					<clipPath id="SVGID_12_">
						<use xlink:href="#SVGID_11_"  style="overflow:visible;"/>
					</clipPath>
					<g class="st7">
						<path class="st4" d="M276,31.3l-9,22.6L247.2,46l9-22.6L276,31.3z"/>
					</g>
				</g>
			</g>
		</g>
	</g>
</g>
<g>
	<defs>
		<rect id="SVGID_13_" x="237.2" y="5.7" width="24.4" height="29.9"/>
	</defs>
	<clipPath id="SVGID_14_">
		<use xlink:href="#SVGID_13_"  style="overflow:visible;"/>
	</clipPath>
	<g class="st8">
		<g>
			<defs>
				<ellipse id="SVGID_15_" cx="249.4" cy="20.6" rx="12.2" ry="15"/>
			</defs>
			<clipPath id="SVGID_16_">
				<use xlink:href="#SVGID_15_"  style="overflow:visible;"/>
			</clipPath>
			<g class="st9">
				<path class="st4" d="M237.2,5.7h24.4v29.9h-24.4V5.7z"/>
			</g>
		</g>
	</g>
</g>
<g>
	<defs>
		<rect id="SVGID_17_" x="226.9" y="12" width="14.7" height="14.7"/>
	</defs>
	<clipPath id="SVGID_18_">
		<use xlink:href="#SVGID_17_"  style="overflow:visible;"/>
	</clipPath>
	<g class="st10">
		<g>
			<defs>
				
					<rect id="SVGID_19_" x="228.3" y="-5.5" transform="matrix(0.6562 -0.7546 0.7546 0.6562 72.3695 188.7738)" width="30" height="41"/>
			</defs>
			<clipPath id="SVGID_20_">
				<use xlink:href="#SVGID_19_"  style="overflow:visible;"/>
			</clipPath>
			<g class="st11">
				<g>
					<defs>
						
							<rect id="SVGID_21_" x="228.3" y="-5.5" transform="matrix(0.6562 -0.7546 0.7546 0.6562 72.3695 188.7738)" width="30" height="41"/>
					</defs>
					<clipPath id="SVGID_22_">
						<use xlink:href="#SVGID_21_"  style="overflow:visible;"/>
					</clipPath>
					<g class="st12">
						<path class="st0" d="M231.9,24.9c0,0,6.4,3.6,9.4-8.2c0,0,0.5-5.8-7.2-4.1C234.1,12.7,219.5,11.1,231.9,24.9z"/>
					</g>
				</g>
			</g>
		</g>
	</g>
</g>
<g>
	<defs>
		<rect id="SVGID_23_" x="240.2" width="8" height="8"/>
	</defs>
	<clipPath id="SVGID_24_">
		<use xlink:href="#SVGID_23_"  style="overflow:visible;"/>
	</clipPath>
	<g class="st13">
		<g>
			<defs>
				
					<rect id="SVGID_25_" x="228.3" y="-5.5" transform="matrix(0.6562 -0.7546 0.7546 0.6562 72.3695 188.7738)" width="30" height="41"/>
			</defs>
			<clipPath id="SVGID_26_">
				<use xlink:href="#SVGID_25_"  style="overflow:visible;"/>
			</clipPath>
			<g class="st14">
				<g>
					<defs>
						
							<rect id="SVGID_27_" x="228.3" y="-5.5" transform="matrix(0.6562 -0.7546 0.7546 0.6562 72.3695 188.7738)" width="30" height="41"/>
					</defs>
					<clipPath id="SVGID_28_">
						<use xlink:href="#SVGID_27_"  style="overflow:visible;"/>
					</clipPath>
					<g class="st15">
						<path class="st0" d="M242.7,7.2c0,0,3.1,1.8,4.6-4c0,0,0.2-2.9-3.5-2C243.8,1.2,236.6,0.5,242.7,7.2z"/>
					</g>
				</g>
			</g>
		</g>
	</g>
</g>
<g>
	<defs>
		<rect id="SVGID_29_" x="248.2" y="12" width="14.7" height="16"/>
	</defs>
	<clipPath id="SVGID_30_">
		<use xlink:href="#SVGID_29_"  style="overflow:visible;"/>
	</clipPath>
	<g class="st16">
		<g>
			<defs>
				
					<rect id="SVGID_31_" x="228.3" y="-5.5" transform="matrix(0.6562 -0.7546 0.7546 0.6562 72.3695 188.7738)" width="30" height="41"/>
			</defs>
			<clipPath id="SVGID_32_">
				<use xlink:href="#SVGID_31_"  style="overflow:visible;"/>
			</clipPath>
			<g class="st17">
				<g>
					<defs>
						
							<rect id="SVGID_33_" x="228.3" y="-5.5" transform="matrix(0.6562 -0.7546 0.7546 0.6562 72.3695 188.7738)" width="30" height="41"/>
					</defs>
					<clipPath id="SVGID_34_">
						<use xlink:href="#SVGID_33_"  style="overflow:visible;"/>
					</clipPath>
					<g class="st18">
						<path class="st0" d="M250,17.4c0,0-5,11.8,2.1,10.2c7-1.6,10.1-2.8,10.1-2.8s-3.8-16.2-8-11.8C250,17.4,250,17.4,250,17.4z"/>
					</g>
				</g>
			</g>
		</g>
	</g>
</g>
</svg>
